<svg xmlns="http://www.w3.org/2000/svg">

    <symbol id="icon-arrow-up-right" viewBox="0 0 24 24" data-name="Flat Line" xmlns="http://www.w3.org/2000/svg">
        <line x1="18.36" y1="5.64" x2="5" y2="19" style="fill: none; stroke: rgb(0, 0, 0); stroke-linecap: round; stroke-linejoin: round; stroke-width: 2;"></line>
        <polyline data-name="primary" points="9 5 19 5 19 14.9" style="fill: none; stroke: rgb(0, 0, 0); stroke-linecap: round; stroke-linejoin: round; stroke-width: 2;"></polyline>
    </symbol>

    <symbol id="icon-chart-bar" viewBox="0 0 16 16" xmlns="http://www.w3.org/2000/svg">
        <path d="M16 1H12V15H16V1Z" fill="currentColor"/>
        <path d="M6 5H10V15H6V5Z" fill="currentColor"/>
        <path d="M0 9H4V15H0V9Z" fill="currentColor"/>
    </symbol>

    <symbol id="icon-clock" viewBox="0 0 16 16" xmlns="http://www.w3.org/2000/svg">
        <path fill-rule="evenodd" clip-rule="evenodd" d="M8 16C12.4183 16 16 12.4183 16 8C16 3.58172 12.4183 0 8 0C3.58172 0 0 3.58172 0 8C0 12.4183 3.58172 16 8 16ZM7 3V8.41421L10.2929 11.7071L11.7071 10.2929L9 7.58579V3H7Z" fill="currentColor"/>
    </symbol>

    <symbol id="icon-code" viewBox="0 0 16 16" xmlns="http://www.w3.org/2000/svg">
        <path d="M8.01005 0.858582L6.01005 14.8586L7.98995 15.1414L9.98995 1.14142L8.01005 0.858582Z" fill="currentColor"/>
        <path d="M12.5 11.5L11.0858 10.0858L13.1716 8L11.0858 5.91422L12.5 4.5L16 8L12.5 11.5Z" fill="currentColor"/>
        <path d="M2.82843 8L4.91421 10.0858L3.5 11.5L0 8L3.5 4.5L4.91421 5.91422L2.82843 8Z" fill="currentColor"/>
    </symbol>

    <symbol id="icon-cog" viewBox="0 0 16 16" xmlns="http://www.w3.org/2000/svg">
        <path fill-rule="evenodd" clip-rule="evenodd" d="M6.50001 0H9.50001L10.0939 2.37548C10.7276 2.6115 11.3107 2.95155 11.8223 3.37488L14.1782 2.70096L15.6782 5.29904L13.9173 7.00166C13.9717 7.32634 14 7.65987 14 8C14 8.34013 13.9717 8.67366 13.9173 8.99834L15.6782 10.701L14.1782 13.299L11.8223 12.6251C11.3107 13.0484 10.7276 13.3885 10.0939 13.6245L9.50001 16H6.50001L5.90614 13.6245C5.27242 13.3885 4.68934 13.0484 4.17768 12.6251L1.82181 13.299L0.321808 10.701L2.08269 8.99834C2.02831 8.67366 2.00001 8.34013 2.00001 8C2.00001 7.65987 2.02831 7.32634 2.08269 7.00166L0.321808 5.29904L1.82181 2.70096L4.17768 3.37488C4.68934 2.95155 5.27241 2.6115 5.90614 2.37548L6.50001 0ZM8.00001 10C9.10458 10 10 9.10457 10 8C10 6.89543 9.10458 6 8.00001 6C6.89544 6 6.00001 6.89543 6.00001 8C6.00001 9.10457 6.89544 10 8.00001 10Z" fill="currentColor"/>
    </symbol>

    <symbol id="icon-database" viewBox="0 0 16 16" xmlns="http://www.w3.org/2000/svg">
        <path d="M13.1371 6.91018C13.4184 6.7695 13.7123 6.59981 14 6.40001V8C14 9.65685 11.3137 11 8 11C4.68629 11 2 9.65685 2 8V6.40001C2.28772 6.59981 2.58158 6.7695 2.86293 6.91018C4.28096 7.61919 6.09998 8 8 8C9.90002 8 11.719 7.61919 13.1371 6.91018Z" fill="currentColor"/>
        <path d="M2 11.4V13C2 14.6569 4.68629 16 8 16C11.3137 16 14 14.6569 14 13V11.4C13.7123 11.5998 13.4184 11.7695 13.1371 11.9102C11.719 12.6192 9.90002 13 8 13C6.09998 13 4.28096 12.6192 2.86293 11.9102C2.58158 11.7695 2.28772 11.5998 2 11.4Z" fill="currentColor"/>
        <path d="M8 0C11.3137 0 14 1.34315 14 3C14 4.65685 11.3137 6 8 6C4.68629 6 2 4.65685 2 3C2 1.34315 4.68629 0 8 0Z" fill="currentColor"/>
    </symbol>

    <symbol id="icon-envelope" viewBox="0 0 16 16" xmlns="http://www.w3.org/2000/svg">
        <path d="M0 5.3585V14H16V5.35849L8 10.3585L0 5.3585Z" fill="currentColor"/>
        <path d="M16 3V2H0V3L8 8L16 3Z" fill="currentColor"/>
    </symbol>

    <symbol id="icon-globe" viewBox="0 0 16 16" xmlns="http://www.w3.org/2000/svg">
        <path d="M1.51967 3.30803C0.748393 4.37143 0.232465 5.63209 0.0618896 7L15.9381 7C15.7675 5.63208 15.2516 4.37142 14.4803 3.30801C14.4387 3.3313 14.3965 3.3546 14.3538 3.3779C12.8684 4.1881 10.7045 5 7.99997 5C5.29547 5 3.13149 4.1881 1.64611 3.3779C1.60342 3.35461 1.56127 3.33131 1.51967 3.30803Z" fill="currentColor"/>
        <path d="M13.0562 1.80011C11.8114 2.42548 10.0975 3 7.99997 3C5.90247 3 4.18861 2.42549 2.94376 1.80013C4.32185 0.674887 6.08211 0 8 0C9.91787 0 11.6781 0.674881 13.0562 1.80011Z" fill="currentColor"/>
        <path d="M0.0618896 9C0.232466 10.3679 0.748398 11.6286 1.51968 12.692C1.56128 12.6687 1.60344 12.6454 1.64614 12.6221C3.13152 11.8119 5.2955 11 8 11C10.7045 11 12.8685 11.8119 14.3538 12.6221C14.3966 12.6454 14.4387 12.6687 14.4803 12.692C15.2516 11.6286 15.7675 10.3679 15.9381 9L0.0618896 9Z" fill="currentColor"/>
        <path d="M8 16C6.08212 16 4.32186 15.3251 2.94377 14.1999C4.18862 13.5745 5.90249 13 8 13C10.0975 13 11.8114 13.5745 13.0562 14.1999C11.6781 15.3251 9.91788 16 8 16Z" fill="currentColor"/>
    </symbol>

    <symbol id="icon-linkedin" xmlns="http://www.w3.org/2000/svg" xmlns:xlink="http://www.w3.org/1999/xlink" 
         viewBox="0 0 382 382" xml:space="preserve">
        <path style="fill:currentColor" d="M347.445,0H34.555C15.471,0,0,15.471,0,34.555v312.889C0,366.529,15.471,382,34.555,382h312.889
        C366.529,382,382,366.529,382,347.444V34.555C382,15.471,366.529,0,347.445,0z M118.207,329.844c0,5.554-4.502,10.056-10.056,10.056
        H65.345c-5.554,0-10.056-4.502-10.056-10.056V150.403c0-5.554,4.502-10.056,10.056-10.056h42.806
        c5.554,0,10.056,4.502,10.056,10.056V329.844z M86.748,123.432c-22.459,0-40.666-18.207-40.666-40.666S64.289,42.1,86.748,42.1
        s40.666,18.207,40.666,40.666S109.208,123.432,86.748,123.432z M341.91,330.654c0,5.106-4.14,9.246-9.246,9.246H286.73
        c-5.106,0-9.246-4.14-9.246-9.246v-84.168c0-12.556,3.683-55.021-32.813-55.021c-28.309,0-34.051,29.066-35.204,42.11v97.079
        c0,5.106-4.139,9.246-9.246,9.246h-44.426c-5.106,0-9.246-4.14-9.246-9.246V149.593c0-5.106,4.14-9.246,9.246-9.246h44.426
        c5.106,0,9.246,4.14,9.246,9.246v15.655c10.497-15.753,26.097-27.912,59.312-27.912c73.552,0,73.131,68.716,73.131,106.472
        L341.91,330.654L341.91,330.654z"/>
    </symbol>

    <symbol id="icon-map-pin" viewBox="0 0 16 16" xmlns="http://www.w3.org/2000/svg">
        <path fill-rule="evenodd" clip-rule="evenodd" d="M3.37892 10.2236L8 16L12.6211 10.2236C13.5137 9.10788 14 7.72154 14 6.29266V6C14 2.68629 11.3137 0 8 0C4.68629 0 2 2.68629 2 6V6.29266C2 7.72154 2.4863 9.10788 3.37892 10.2236ZM8 8C9.10457 8 10 7.10457 10 6C10 4.89543 9.10457 4 8 4C6.89543 4 6 4.89543 6 6C6 7.10457 6.89543 8 8 8Z" fill="currentColor"/>
    </symbol>

    <symbol id="icon-mobile-phone" viewBox="0 0 16 16" version="1.1" xmlns="http://www.w3.org/2000/svg" xmlns:xlink="http://www.w3.org/1999/xlink">
      <rect width="16" height="16" fill="none" />
      <path style="fill:currentColor" d="M11.5,0h-7C3.675,0,3,0.675,3,1.5v13C3,15.325,3.675,16,4.5,16h7c0.825,0,1.5-0.675,1.5-1.5v-13C13,0.675,12.325,0,11.5,0z M8,15c-0.553,0-1-0.447-1-1s0.447-1,1-1s1,0.447,1,1S8.553,15,8,15z M12,12H4V2h8V12z" />
    </symbol>

    <symbol id="icon-pen-tool" viewBox="0 0 16 16">
        <path d="M11 0L16 5L14 7V12L3 16L2.20711 15.2071L6.48196 10.9323C6.64718 10.9764 6.82084 11 7 11C8.10457 11 9 10.1046 9 9C9 7.89543 8.10457 7 7 7C5.89543 7 5 7.89543 5 9C5 9.17916 5.02356 9.35282 5.06774 9.51804L0.792893 13.7929L0 13L4 2H9L11 0Z" fill="currentColor"/>
    </symbol>

</svg>

